<svg version="1.1" id="Layer_1" xmlns="http://www.w3.org/2000/svg" xmlns:xlink="http://www.w3.org/1999/xlink" x="0px" y="0px"
	 width="30px" height="30px" viewBox="0 0 30 30" enable-background="new 0 0 30 30" xml:space="preserve">
<g>
	<path d="M17.989,1.946c-0.248-0.468-0.521-0.926-0.825-1.367c-3.784,1.247-7.915,1.247-11.698,0
		C5.163,1.02,4.889,1.478,4.644,1.946C8.948,3.43,13.682,3.43,17.989,1.946z M10.762,2.288c0-0.281,0.238-0.511,0.54-0.518
		c0.307-0.008,0.562,0.217,0.569,0.5c0,0.006,0,0.011,0,0.018c0,0.283-0.248,0.514-0.554,0.514
		C11.012,2.801,10.762,2.571,10.762,2.288z"/>
	<path d="M19.155,10.664c0.583-2.601,0.331-5.302-0.721-7.772c-0.653,0.227-1.319,0.423-1.993,0.587l1.647,1.935
		c0.139,0.646,0.225,1.301,0.253,1.958l-3.097-3.639c-1.112,0.204-2.243,0.32-3.375,0.349v2.854c0,0.635-0.452,1.195-1.109,1.37
		V4.082C9.626,4.053,8.497,3.937,7.385,3.732L4.287,7.371C4.315,6.714,4.401,6.059,4.54,5.413l1.648-1.935
		c-0.674-0.164-1.341-0.36-1.995-0.589C3.142,5.36,2.891,8.063,3.474,10.664c0.845,3.775,1.085,7.647,0.712,11.487l-0.705,7.27
		h5.042l2.571-17.691c0.016-0.112,0.128-0.191,0.25-0.175c0.099,0.011,0.175,0.084,0.188,0.175l1.417,9.744l5.327-2.232
		C18.229,16.361,18.524,13.485,19.155,10.664z"/>
	<polygon points="24.854,17.615 13.105,22.537 18.554,25.58 26.833,21.689 	"/>
</g>
</svg>
