<svg version="1.1" id="Layer_1" xmlns="http://www.w3.org/2000/svg" xmlns:xlink="http://www.w3.org/1999/xlink" x="0px" y="0px"
	 width="24.006px" height="22px" viewBox="0 0 24.006 22" enable-background="new 0 0 24.006 22" xml:space="preserve">
<path d="M17.61,18.15c0.597,0,1.066,0.481,1.066,1.1c0,0.617-0.47,1.102-1.066,1.102c-0.6,0-1.069-0.484-1.069-1.102
	C16.541,18.632,17.011,18.15,17.61,18.15z M9.604,18.15c0.6,0,1.068,0.481,1.068,1.1c0,0.617-0.469,1.102-1.068,1.102
	c-0.598,0-1.066-0.484-1.066-1.102C8.538,18.632,9.007,18.15,9.604,18.15z M17.61,16.5c-1.464,0-2.67,1.24-2.67,2.75
	c0,1.508,1.206,2.75,2.67,2.75s2.667-1.242,2.667-2.75C20.277,17.74,19.074,16.5,17.61,16.5z M9.604,16.5
	c-1.465,0-2.667,1.24-2.667,2.75c0,1.508,1.202,2.75,2.667,2.75c1.464,0,2.669-1.242,2.669-2.75
	C12.273,17.74,11.068,16.5,9.604,16.5z M17.343,8.526h3.926L20.711,11h-3.368V8.526z M12.007,8.526h3.735V11h-3.735V8.526z
	 M6.402,8.526h4.004V11H6.91L6.402,8.526z M17.343,4.401h4.861l-0.558,2.474h-4.304V4.401z M12.007,4.401h3.735v2.474h-3.735V4.401z
	 M5.554,4.401h4.853v2.474H6.062L5.554,4.401z M0.799,0C0.356,0,0,0.371,0,0.826c0,0.457,0.356,0.825,0.799,0.825H3.35l2.753,13.378
	c0.11,0.506,0.428,0.924,0.835,0.921h13.34c0.425,0.006,0.813-0.39,0.813-0.825c0-0.434-0.389-0.832-0.813-0.826H7.588L7.246,12.65
	h14.101c0.355-0.002,0.694-0.285,0.774-0.645l1.868-8.25c0.104-0.478-0.3-1.003-0.775-1.007H5.218L4.784,0.653
	C4.71,0.288,4.365,0,4,0H0.799z"/>
</svg>
