<svg version="1.1" id="Layer_1" xmlns="http://www.w3.org/2000/svg" xmlns:xlink="http://www.w3.org/1999/xlink" x="0px" y="0px"
	 width="30px" height="30px" viewBox="0 0 30 30" enable-background="new 0 0 30 30" xml:space="preserve">
<g>
	<polygon points="14.52,14.993 15.475,15.001 15.48,14.993 15.48,14.508 15.48,12.538 15.48,12.053 14.526,12.047 	
		"/>
	<rect x="16.444" y="13.03" width="2.403" height="0.985"/>
	<path d="M20.267,7.567L19.53,7.029c-0.503-0.366-1.226-0.494-1.936-0.345c-0.881,0.188-1.656,0.783-2.183,1.675
		c-0.174,0.296-0.649,0.296-0.822,0c-0.527-0.892-1.302-1.487-2.184-1.675c-0.708-0.149-1.432-0.021-1.937,0.345l-0.74,0.457
		c0.102,2.315,0.605,3.754,1.016,4.561h2.814c0.004-0.545,0.434-0.986,0.967-0.986h0.949c0.532,0,0.965,0.441,0.966,0.986h2.813
		C19.661,11.251,20.157,9.836,20.267,7.567z"/>
	<path d="M20.557,6.572c0.525-0.547,1.178-1.343,1.178-1.914c0-1.322-0.989-1.94-2.225-2.227l-0.375,3.341
		c0.35,0.1,0.673,0.251,0.953,0.455L20.557,6.572z"/>
	<rect x="11.153" y="13.03" width="2.404" height="0.985"/>
	<path d="M24.608,27.213c-0.069-0.351-1.628-8.064-5.116-12.215h-3.051c-0.001,0.545-0.435,0.986-0.966,0.986h-0.949
		c-0.531,0-0.963-0.441-0.967-0.986h-3.051c-3.488,4.15-5.047,11.864-5.117,12.215c-0.049,0.25,0.098,0.5,0.34,0.57
		c0.278,0.08,6.826,1.988,9.27,1.988c2.442,0,8.99-1.908,9.266-1.988C24.511,27.713,24.659,27.463,24.608,27.213z M22.213,22.879
		c0.267,0,0.482,0.222,0.482,0.491c0,0.271-0.216,0.491-0.482,0.491c-0.265,0-0.48-0.221-0.48-0.491
		C21.732,23.101,21.948,22.879,22.213,22.879z M9.711,24.354c0.265,0,0.481,0.222,0.481,0.494c0,0.271-0.217,0.491-0.481,0.491
		c-0.266,0-0.482-0.221-0.482-0.491C9.229,24.576,9.445,24.354,9.711,24.354z M8.75,23.861c-0.268,0-0.482-0.221-0.482-0.491
		c0-0.27,0.214-0.491,0.482-0.491c0.265,0,0.479,0.222,0.479,0.491C9.229,23.641,9.015,23.861,8.75,23.861z M9.711,22.385
		c-0.266,0-0.482-0.221-0.482-0.492c0-0.27,0.216-0.49,0.482-0.49c0.265,0,0.481,0.221,0.481,0.49
		C10.192,22.164,9.976,22.385,9.711,22.385z M10.671,22.879c0.265,0,0.482,0.222,0.482,0.491c0,0.271-0.217,0.491-0.482,0.491
		s-0.479-0.221-0.479-0.491C10.192,23.101,10.406,22.879,10.671,22.879z M10.192,20.417c0-0.272,0.214-0.493,0.479-0.493
		s0.482,0.221,0.482,0.493c0,0.271-0.217,0.489-0.482,0.489S10.192,20.688,10.192,20.417z M11.635,24.354
		c0.265,0,0.48,0.222,0.48,0.494c0,0.271-0.215,0.491-0.48,0.491c-0.266,0-0.481-0.221-0.481-0.491
		C11.153,24.576,11.369,24.354,11.635,24.354z M11.635,22.385c-0.266,0-0.481-0.221-0.481-0.492c0-0.27,0.216-0.49,0.481-0.49
		c0.265,0,0.48,0.221,0.48,0.49C12.115,22.164,11.9,22.385,11.635,22.385z M11.635,19.43c-0.266,0-0.481-0.219-0.481-0.491
		c0-0.27,0.216-0.491,0.481-0.491c0.265,0,0.48,0.222,0.48,0.491C12.115,19.211,11.9,19.43,11.635,19.43z M12.596,19.924
		c0.265,0,0.481,0.221,0.481,0.493c0,0.271-0.216,0.489-0.481,0.489c-0.266,0-0.481-0.219-0.481-0.489
		C12.115,20.145,12.33,19.924,12.596,19.924z M12.596,22.879c0.265,0,0.481,0.222,0.481,0.491c0,0.271-0.216,0.491-0.481,0.491
		c-0.266,0-0.481-0.221-0.481-0.491C12.115,23.101,12.33,22.879,12.596,22.879z M13.559,24.354c0.265,0,0.479,0.222,0.479,0.494
		c0,0.271-0.215,0.491-0.479,0.491c-0.268,0-0.482-0.221-0.482-0.491C13.077,24.576,13.291,24.354,13.559,24.354z M13.559,22.385
		c-0.268,0-0.482-0.221-0.482-0.492c0-0.27,0.214-0.49,0.482-0.49c0.265,0,0.479,0.221,0.479,0.49
		C14.039,22.164,13.824,22.385,13.559,22.385z M14.52,22.879c0.265,0,0.481,0.222,0.481,0.491c0,0.271-0.217,0.491-0.481,0.491
		c-0.266,0-0.481-0.221-0.481-0.491C14.039,23.101,14.254,22.879,14.52,22.879z M14.039,20.417c0-0.272,0.216-0.493,0.481-0.493
		c0.265,0,0.481,0.221,0.481,0.493c0,0.271-0.217,0.489-0.481,0.489C14.254,20.906,14.039,20.688,14.039,20.417z M15.48,24.354
		c0.266,0,0.481,0.222,0.481,0.494c0,0.271-0.216,0.491-0.481,0.491c-0.265,0-0.479-0.221-0.479-0.491
		C15.001,24.576,15.215,24.354,15.48,24.354z M15.48,22.385c-0.265,0-0.479-0.221-0.479-0.492c0-0.27,0.214-0.49,0.479-0.49
		c0.266,0,0.481,0.221,0.481,0.49C15.962,22.164,15.746,22.385,15.48,22.385z M16.444,22.879c0.265,0,0.479,0.222,0.479,0.491
		c0,0.271-0.214,0.491-0.479,0.491c-0.267,0-0.482-0.221-0.482-0.491C15.962,23.101,16.178,22.879,16.444,22.879z M15.962,20.417
		c0-0.272,0.216-0.493,0.482-0.493c0.265,0,0.479,0.221,0.479,0.493c0,0.271-0.214,0.489-0.479,0.489
		C16.178,20.906,15.962,20.688,15.962,20.417z M17.404,24.354c0.266,0,0.481,0.222,0.481,0.494c0,0.271-0.216,0.491-0.481,0.491
		s-0.481-0.221-0.481-0.491C16.923,24.576,17.139,24.354,17.404,24.354z M17.404,22.385c-0.266,0-0.481-0.221-0.481-0.492
		c0-0.27,0.216-0.49,0.481-0.49s0.481,0.221,0.481,0.49C17.886,22.164,17.67,22.385,17.404,22.385z M17.404,19.43
		c-0.266,0-0.481-0.219-0.481-0.491c0-0.27,0.216-0.491,0.481-0.491s0.481,0.222,0.481,0.491
		C17.886,19.211,17.67,19.43,17.404,19.43z M18.364,19.924c0.269,0,0.483,0.221,0.483,0.493c0,0.271-0.215,0.489-0.483,0.489
		c-0.264,0-0.479-0.219-0.479-0.489C17.886,20.145,18.101,19.924,18.364,19.924z M18.364,22.879c0.269,0,0.483,0.222,0.483,0.491
		c0,0.271-0.215,0.491-0.483,0.491c-0.264,0-0.479-0.221-0.479-0.491C17.886,23.101,18.101,22.879,18.364,22.879z M19.328,24.354
		c0.267,0,0.482,0.222,0.482,0.494c0,0.271-0.216,0.491-0.482,0.491c-0.265,0-0.48-0.221-0.48-0.491
		C18.848,24.576,19.063,24.354,19.328,24.354z M19.328,22.385c-0.265,0-0.48-0.221-0.48-0.492c0-0.27,0.216-0.49,0.48-0.49
		c0.267,0,0.482,0.221,0.482,0.49C19.811,22.164,19.595,22.385,19.328,22.385z M19.328,19.43c-0.265,0-0.48-0.219-0.48-0.491
		c0-0.27,0.216-0.491,0.48-0.491c0.267,0,0.482,0.222,0.482,0.491C19.811,19.211,19.595,19.43,19.328,19.43z M20.29,19.924
		c0.265,0,0.481,0.221,0.481,0.493c0,0.271-0.217,0.489-0.481,0.489c-0.266,0-0.479-0.219-0.479-0.489
		C19.811,20.145,20.024,19.924,20.29,19.924z M20.29,22.879c0.265,0,0.481,0.222,0.481,0.491c0,0.271-0.217,0.491-0.481,0.491
		c-0.266,0-0.479-0.221-0.479-0.491C19.811,23.101,20.024,22.879,20.29,22.879z M21.253,24.354c0.266,0,0.479,0.222,0.479,0.494
		c0,0.271-0.214,0.491-0.479,0.491c-0.265,0-0.481-0.221-0.481-0.491C20.771,24.576,20.988,24.354,21.253,24.354z M21.253,22.385
		c-0.265,0-0.481-0.221-0.481-0.492c0-0.27,0.217-0.49,0.481-0.49c0.266,0,0.479,0.221,0.479,0.49
		C21.732,22.164,21.519,22.385,21.253,22.385z M21.253,18.447c0.266,0,0.479,0.222,0.479,0.491c0,0.272-0.214,0.491-0.479,0.491
		c-0.265,0-0.481-0.219-0.481-0.491C20.771,18.669,20.988,18.447,21.253,18.447z M20.29,16.97c0.265,0,0.481,0.221,0.481,0.493
		c0,0.271-0.217,0.492-0.481,0.492c-0.266,0-0.479-0.221-0.479-0.492C19.811,17.19,20.024,16.97,20.29,16.97z M19.328,15.493
		c0.267,0,0.482,0.22,0.482,0.491c0,0.272-0.216,0.492-0.482,0.492c-0.265,0-0.48-0.22-0.48-0.492
		C18.848,15.713,19.063,15.493,19.328,15.493z M18.364,16.97c0.269,0,0.483,0.221,0.483,0.493c0,0.271-0.215,0.492-0.483,0.492
		c-0.264,0-0.479-0.221-0.479-0.492C17.886,17.19,18.101,16.97,18.364,16.97z M17.404,15.493c0.266,0,0.481,0.22,0.481,0.491
		c0,0.272-0.216,0.492-0.481,0.492s-0.481-0.22-0.481-0.492C16.923,15.713,17.139,15.493,17.404,15.493z M16.444,16.97
		c0.265,0,0.479,0.221,0.479,0.493c0,0.271-0.214,0.492-0.479,0.492c-0.267,0-0.482-0.221-0.482-0.492
		C15.962,17.19,16.178,16.97,16.444,16.97z M15.48,18.447c0.266,0,0.481,0.222,0.481,0.491c0,0.272-0.216,0.491-0.481,0.491
		c-0.265,0-0.479-0.219-0.479-0.491C15.001,18.669,15.215,18.447,15.48,18.447z M14.52,16.97c0.265,0,0.481,0.221,0.481,0.493
		c0,0.271-0.217,0.492-0.481,0.492c-0.266,0-0.481-0.221-0.481-0.492C14.039,17.19,14.254,16.97,14.52,16.97z M13.559,18.447
		c0.265,0,0.479,0.222,0.479,0.491c0,0.272-0.215,0.491-0.479,0.491c-0.268,0-0.482-0.219-0.482-0.491
		C13.077,18.669,13.291,18.447,13.559,18.447z M12.596,16.97c0.265,0,0.481,0.221,0.481,0.493c0,0.271-0.216,0.492-0.481,0.492
		c-0.266,0-0.481-0.221-0.481-0.492C12.115,17.19,12.33,16.97,12.596,16.97z M11.635,15.493c0.265,0,0.48,0.22,0.48,0.491
		c0,0.272-0.215,0.492-0.48,0.492c-0.266,0-0.481-0.22-0.481-0.492C11.153,15.713,11.369,15.493,11.635,15.493z M10.671,16.97
		c0.265,0,0.482,0.221,0.482,0.493c0,0.271-0.217,0.492-0.482,0.492s-0.479-0.221-0.479-0.492
		C10.192,17.19,10.406,16.97,10.671,16.97z M9.711,18.447c0.265,0,0.481,0.222,0.481,0.491c0,0.272-0.217,0.491-0.481,0.491
		c-0.266,0-0.482-0.219-0.482-0.491C9.229,18.669,9.445,18.447,9.711,18.447z M8.75,19.924c0.265,0,0.479,0.221,0.479,0.493
		c0,0.271-0.214,0.489-0.479,0.489c-0.268,0-0.482-0.219-0.482-0.489C8.268,20.145,8.482,19.924,8.75,19.924z M7.787,21.402
		c0.265,0,0.481,0.221,0.481,0.49c0,0.271-0.216,0.492-0.481,0.492c-0.266,0-0.481-0.221-0.481-0.492
		C7.305,21.623,7.521,21.402,7.787,21.402z M6.826,26.817c-0.266,0-0.482-0.221-0.482-0.492c0-0.272,0.216-0.492,0.482-0.492
		c0.265,0,0.479,0.22,0.479,0.492C7.305,26.597,7.091,26.817,6.826,26.817z M7.787,25.34c-0.266,0-0.481-0.221-0.481-0.491
		c0-0.272,0.216-0.494,0.481-0.494c0.265,0,0.481,0.222,0.481,0.494C8.268,25.119,8.052,25.34,7.787,25.34z M8.75,26.817
		c-0.268,0-0.482-0.221-0.482-0.492c0-0.272,0.214-0.492,0.482-0.492c0.265,0,0.479,0.22,0.479,0.492
		C9.229,26.597,9.015,26.817,8.75,26.817z M9.711,28.293c-0.266,0-0.482-0.221-0.482-0.491s0.216-0.491,0.482-0.491
		c0.265,0,0.481,0.221,0.481,0.491S9.976,28.293,9.711,28.293z M10.671,26.817c-0.265,0-0.479-0.221-0.479-0.492
		c0-0.272,0.214-0.492,0.479-0.492s0.482,0.22,0.482,0.492C11.153,26.597,10.937,26.817,10.671,26.817z M11.635,28.293
		c-0.266,0-0.481-0.221-0.481-0.491s0.216-0.491,0.481-0.491c0.265,0,0.48,0.221,0.48,0.491S11.9,28.293,11.635,28.293z
		 M12.596,26.817c-0.266,0-0.481-0.221-0.481-0.492c0-0.272,0.215-0.492,0.481-0.492c0.265,0,0.481,0.22,0.481,0.492
		C13.077,26.597,12.861,26.817,12.596,26.817z M13.559,28.293c-0.268,0-0.482-0.221-0.482-0.491s0.214-0.491,0.482-0.491
		c0.265,0,0.479,0.221,0.479,0.491S13.824,28.293,13.559,28.293z M14.52,26.817c-0.266,0-0.481-0.221-0.481-0.492
		c0-0.272,0.216-0.492,0.481-0.492c0.265,0,0.481,0.22,0.481,0.492C15.001,26.597,14.785,26.817,14.52,26.817z M15.48,28.293
		c-0.265,0-0.479-0.221-0.479-0.491s0.214-0.491,0.479-0.491c0.266,0,0.481,0.221,0.481,0.491S15.746,28.293,15.48,28.293z
		 M16.444,26.817c-0.267,0-0.482-0.221-0.482-0.492c0-0.272,0.216-0.492,0.482-0.492c0.265,0,0.479,0.22,0.479,0.492
		C16.923,26.597,16.709,26.817,16.444,26.817z M17.404,28.293c-0.266,0-0.481-0.221-0.481-0.491s0.216-0.491,0.481-0.491
		s0.481,0.221,0.481,0.491S17.67,28.293,17.404,28.293z M18.364,26.817c-0.264,0-0.479-0.221-0.479-0.492
		c0-0.272,0.215-0.492,0.479-0.492c0.269,0,0.483,0.22,0.483,0.492C18.848,26.597,18.633,26.817,18.364,26.817z M19.328,28.293
		c-0.265,0-0.48-0.221-0.48-0.491s0.216-0.491,0.48-0.491c0.267,0,0.482,0.221,0.482,0.491S19.595,28.293,19.328,28.293z
		 M20.29,26.817c-0.266,0-0.479-0.221-0.479-0.492c0-0.272,0.214-0.492,0.479-0.492c0.265,0,0.481,0.22,0.481,0.492
		C20.771,26.597,20.555,26.817,20.29,26.817z M21.253,28.293c-0.265,0-0.481-0.221-0.481-0.491s0.217-0.491,0.481-0.491
		c0.266,0,0.479,0.221,0.479,0.491S21.519,28.293,21.253,28.293z M22.213,26.817c-0.265,0-0.48-0.221-0.48-0.492
		c0-0.272,0.216-0.492,0.48-0.492c0.267,0,0.482,0.22,0.482,0.492C22.695,26.597,22.479,26.817,22.213,26.817z M23.174,25.34
		c-0.265,0-0.479-0.221-0.479-0.491c0-0.272,0.214-0.494,0.479-0.494c0.268,0,0.482,0.222,0.482,0.494
		C23.656,25.119,23.441,25.34,23.174,25.34z"/>
	<path d="M9.943,6.207c0.276-0.2,0.602-0.349,0.956-0.445l-0.127-3.389C9.407,2.628,8.266,3.236,8.266,4.658
		c0,0.56,0.626,1.332,1.143,1.877L9.943,6.207z"/>
	<path d="M12.602,5.721c0.931,0.196,1.763,0.732,2.399,1.531c0.636-0.799,1.468-1.335,2.397-1.531
		c0.261-0.055,0.524-0.079,0.784-0.079l0.377-3.368c-0.552-0.06-1.116-0.076-1.637-0.076c-0.265,0-0.479-0.221-0.479-0.491V0.72
		c0-0.271-0.217-0.491-0.482-0.491h-1.923c-0.266,0-0.481,0.221-0.481,0.491v0.986c0,0.271-0.215,0.491-0.48,0.491
		c-0.431,0-0.89,0.013-1.349,0.051l0.126,3.392C12.102,5.642,12.353,5.668,12.602,5.721z"/>
</g>
</svg>
