<svg version="1.1" id="Layer_1" xmlns="http://www.w3.org/2000/svg" xmlns:xlink="http://www.w3.org/1999/xlink" x="0px" y="0px"
	 width="30px" height="30px" viewBox="0 0 30 30" enable-background="new 0 0 30 30" xml:space="preserve">
<g>
	<path d="M0.071,5.906v5.842c0,0.224,0.159,0.434,0.342,0.558c0.186,0.128,0.445,0.156,0.657,0.079l3.978-1.478
		V3.628l-4.484,1.64C0.295,5.368,0.071,5.623,0.071,5.906z"/>
	<path d="M29.445,5.268l-4.493-1.643v7.279l3.975,1.479c0.21,0.078,0.483,0.049,0.669-0.079
		c0.185-0.126,0.333-0.334,0.333-0.558V5.906C29.929,5.623,29.714,5.368,29.445,5.268z"/>
	<path d="M20.02,3.638c-0.345,0-0.632,0.198-0.678,0.536c-0.292,2.118-2.121,3.727-4.333,3.727
		c-2.213,0-4.04-1.594-4.33-3.713c-0.044-0.338-0.335-0.549-0.678-0.549H6.354L5.755,25.615c-0.008,0.188,0.063,0.393,0.191,0.525
		c0.129,0.131,0.306,0.234,0.492,0.234h17.146c0.183,0,0.361-0.131,0.49-0.262c0.127-0.131,0.198-0.283,0.194-0.471l-0.6-22.004
		H20.02z"/>
</g>
</svg>
