<svg version="1.1" id="Layer_1" xmlns="http://www.w3.org/2000/svg" xmlns:xlink="http://www.w3.org/1999/xlink" x="0px" y="0px"
	 width="30px" height="30px" viewBox="0 0 30 30" enable-background="new 0 0 30 30" xml:space="preserve">
<g>
	<path d="M7.938,12.259c-0.014,1.333-0.136,2.635-0.357,3.903c4.156,1.817,10.735,1.788,14.842-0.071
		c-0.197-1.245-0.301-2.528-0.301-3.841c-2.153,0.724-5.083,1.087-7.107,1.087C13.019,13.337,10.089,12.969,7.938,12.259z"/>
	<path d="M7.633,10.856c4.01,1.674,10.838,1.678,14.807-0.023c0.017-0.028,0.028-0.056,0.046-0.082
		c0.556-0.886,0.778-1.912,0.639-2.968c-0.25-1.889-1.709-3.437-3.552-3.759c-0.059-0.01-0.12-0.015-0.18-0.023V0.735
		c0-0.337-0.266-0.607-0.596-0.607c-0.331,0-0.6,0.271-0.6,0.607v3.26c-0.758,0.104-1.478,0.41-2.089,0.898
		c-0.202,0.164-0.526,0.357-0.926,0.357c-0.485-0.007-0.957-0.158-1.322-0.432c-0.591-0.445-1.276-0.724-1.998-0.824v-3.26
		c0-0.337-0.267-0.607-0.598-0.607c-0.33,0-0.599,0.271-0.599,0.607v3.262c-0.055,0.009-0.111,0.01-0.167,0.021
		C8.657,4.334,7.191,5.875,6.941,7.764c-0.145,1.063,0.078,2.095,0.633,2.987C7.598,10.786,7.612,10.819,7.633,10.856z"/>
	<path d="M23.786,20.991c-0.483-1.179-0.862-2.406-1.136-3.679c-2.234,0.967-5.319,1.701-7.636,1.701
		c-2.277,0-5.432-0.697-7.68-1.64c-0.294,1.272-0.695,2.502-1.201,3.688C11.068,23.979,18.89,23.938,23.786,20.991z"/>
	<path d="M24.73,23.553c-0.133-0.46-0.305-0.939-0.492-1.427c-2.642,1.546-6.279,2.581-9.227,2.581
		c-2.932,0-6.68-0.989-9.34-2.52c-0.186,0.469-0.349,0.929-0.471,1.365c-0.778,2.756-0.39,5.675-0.37,5.798
		c0.036,0.296,0.292,0.521,0.59,0.521h19.226c0.306,0,0.567-0.238,0.59-0.553C25.25,29.196,25.494,26.296,24.73,23.553z"/>
</g>
</svg>
