<svg version="1.1" id="Layer_1" xmlns="http://www.w3.org/2000/svg" xmlns:xlink="http://www.w3.org/1999/xlink" x="0px" y="0px"
	 width="20px" height="20px" viewBox="0 0 20 20" enable-background="new 0 0 20 20" xml:space="preserve">
<path fill="#000000" d="M19.5,18.038c0,0.398-0.146,0.739-0.434,1.027c-0.291,0.291-0.633,0.434-1.028,0.434
	c-0.412,0-0.754-0.143-1.03-0.434l-3.914-3.904c-1.362,0.943-2.884,1.416-4.556,1.416c-1.09,0-2.132-0.211-3.124-0.633
	c-0.994-0.422-1.85-0.994-2.568-1.713s-1.292-1.577-1.714-2.569C0.71,10.667,0.5,9.627,0.5,8.538c0-1.087,0.21-2.129,0.632-3.121
	c0.422-0.995,0.995-1.85,1.714-2.568S4.42,1.556,5.414,1.134c0.992-0.422,2.034-0.633,3.124-0.633c1.088,0,2.13,0.211,3.122,0.633
	c0.994,0.422,1.85,0.995,2.568,1.714c0.722,0.719,1.292,1.573,1.714,2.568c0.422,0.992,0.632,2.034,0.632,3.121
	c0,1.675-0.472,3.195-1.413,4.556l3.914,3.917C19.357,17.292,19.5,17.634,19.5,18.038z M13.652,8.538
	c0-1.407-0.499-2.613-1.503-3.614c-1.001-1-2.203-1.499-3.611-1.499c-1.41,0-2.613,0.499-3.613,1.499
	C3.924,5.924,3.422,7.13,3.422,8.538c0,1.408,0.502,2.613,1.503,3.614c1,1.001,2.203,1.503,3.613,1.503
	c1.408,0,2.61-0.502,3.611-1.503C13.153,11.151,13.652,9.946,13.652,8.538z"/>
</svg>
