<svg version="1.1" id="Layer_1" xmlns="http://www.w3.org/2000/svg" xmlns:xlink="http://www.w3.org/1999/xlink" x="0px" y="0px"
	 width="30px" height="30px" viewBox="0 0 30 30" enable-background="new 0 0 30 30" xml:space="preserve">
<g>
	<path d="M18.196,7.537c0.728-2.663,0.198-5.192-0.166-6.475c-0.363-0.131-0.694-0.196-1.061-0.196h-3.972
		c-0.364,0-0.695,0.065-0.993,0.196c-0.099,0.361-0.231,0.823-0.332,1.38c0,0.098-0.033,0.166-0.033,0.263
		c-0.033,0.164-0.065,0.361-0.065,0.56c-0.133,1.247-0.133,2.725,0.296,4.271c0.366,1.315,0.828,2.825,1.324,4.271
		c0.928,2.761,1.856,5.191,1.856,5.191s0.893-2.431,1.82-5.191C17.336,10.362,17.832,8.852,18.196,7.537z"/>
	<path d="M13.361,23.507c-0.562,0-1.026-0.46-1.026-1.02c0-0.556,0.465-1.019,1.026-1.019
		c0.366,0,0.697,0.198,0.863,0.463c-0.201-0.987-0.464-2.038-0.795-3.223c-1.227-4.438-3.378-6.375-3.94-8.181
		c-0.529-1.611,0.63-2.795,0.861-2.991c-0.101,0.065-0.364,0.196-0.663,0.23c-0.032,0-0.064,0-0.1,0c0,0,0,0-0.033,0
		c-0.464,0-0.96-0.396-0.828-2.038c0.101-1.282,0.73-2.464,1.424-3.417L5.052,4.678C4.919,4.744,4.787,4.874,4.721,5.006
		c-0.101,0.262-2.814,6.31-3.544,11.206c-0.694,4.996-0.893,8.248-1.09,11.962c-0.035,0.362,0.263,0.658,0.626,0.69l4.239,0.229
		h0.032c0.166,0,0.331-0.065,0.464-0.163c0.133-0.131,0.198-0.296,0.198-0.46c0-0.034,0.133-4.732,0.763-8.642
		c0.23-1.547,0.529-2.861,0.762-3.847c0.396,1.611,0.828,3.483,0.828,4.208c0,0.524-0.198,1.247-0.464,2.103
		c-0.363,1.247-0.827,2.793-0.827,4.535c0,0.592,0.266,1.937,2.649,1.937c1.622,0,3.774-0.622,4.965-1.018v-4.864
		C14.156,23.278,13.792,23.507,13.361,23.507z"/>
	<path d="M28.758,16.212c-0.694-4.896-3.411-10.944-3.51-11.206c-0.067-0.132-0.197-0.263-0.331-0.329l-5.131-2.333
		c0.695,0.954,1.324,2.103,1.422,3.418c0.101,1.609-0.363,2.005-0.795,2.038h-0.032c-0.396,0-0.795-0.263-0.795-0.263
		s1.49,1.25,0.927,3.056c-0.362,1.117-1.323,2.3-2.316,4.108c-0.597,1.085-1.159,2.4-1.622,4.074
		c-0.396,1.415-0.695,2.728-0.893,3.879v5.16c1.191,0.394,3.343,1.019,4.965,1.019c2.382,0,2.648-1.349,2.648-1.94
		c0-1.741-0.464-3.287-0.828-4.534c-0.266-0.855-0.464-1.611-0.464-2.136c0.033-0.723,0.432-2.597,0.828-4.209
		c0.233,0.986,0.497,2.302,0.763,3.848c0.629,3.91,0.76,8.609,0.76,8.643c0,0.163,0.067,0.361,0.2,0.459
		c0.131,0.131,0.296,0.198,0.497,0.163l4.236-0.228c0.366-0.033,0.629-0.329,0.629-0.69C29.686,24.46,29.487,21.208,28.758,16.212z"
		/>
</g>
</svg>
