<svg version="1.1" id="Layer_1" xmlns="http://www.w3.org/2000/svg" xmlns:xlink="http://www.w3.org/1999/xlink" x="0px" y="0px"
	 width="30px" height="30px" viewBox="0 0 30 30" enable-background="new 0 0 30 30" xml:space="preserve">
<g>
	<path d="M29.788,16.713l-6.002-9.852c-0.126,0.377-0.317,0.758-0.632,1.138c-0.632,0.694-1.581,1.072-2.781,1.198
		c-0.188,0-0.381,0-0.569,0c-1.706,0-3.349-0.694-4.296-1.767c-0.065-0.063-0.128-0.126-0.128-0.191
		c-0.189,0.38-0.44,0.695-0.758,0.949c-0.505,0.441-1.137,0.569-1.58,0.758c-0.695,0.189-1.642,0.443-2.527,0.443
		c-0.758,0-1.455-0.191-2.023-0.506C8.05,8.628,7.796,8.313,7.544,7.999C7.039,7.43,6.659,6.798,6.407,6.229
		C6.344,6.418,6.218,6.672,6.153,6.861l-5.939,9.852c-0.126,0.254-0.063,0.506,0.191,0.694c0.631,0.506,1.958,1.327,3.411,0.948
		c0.191-0.063,0.317-0.125,0.443-0.254c0.631-0.82,3.476-4.356,4.613-6.692c0.063-0.191,0.442-0.128,0.442,0.063
		c-0.188,2.653-1.074,8.779-5.056,17.748c-0.126,0.252,0.191,0.504,0.506,0.44c1.389-0.252,4.55-0.504,10.047,0.191
		c5.625-0.695,8.912-0.38,10.302-0.191c0.38,0.063,0.632-0.188,0.506-0.44c-4.107-9.033-4.993-15.16-5.183-17.811
		c0-0.191,0.38-0.254,0.443-0.065c1.138,2.338,4.045,5.875,4.739,6.695c0.126,0.126,0.252,0.191,0.442,0.254
		c1.452,0.378,2.844-0.442,3.477-0.948C29.852,17.219,29.915,16.903,29.788,16.713z"/>
	<path d="M22.017,2.25c-0.694-0.884-2.024-1.453-3.351-1.768c-3.224-0.76-6.951-0.191-9.541,1.39
		C8.491,2.25,7.859,2.755,7.544,3.324C6.85,4.587,7.607,5.977,8.556,7.112c0.189,0.254,0.377,0.443,0.631,0.632
		c0.947,0.568,2.275,0.254,3.413-0.063c0.377-0.126,0.821-0.252,1.138-0.506c0.378-0.315,0.504-0.695,0.504-1.136
		c0.064-1.138-0.695-2.212-0.821-3.348c0-0.126,0-0.317,0.063-0.442c0.126-0.189,0.38-0.252,0.632-0.315
		c0.505-0.063,1.074-0.191,1.58-0.191c0.506,0.063,1.075,0.317,1.138,0.695c0.063,0.38-0.254,0.695-0.506,1.012
		c-0.695,0.946-0.632,2.21,0.188,3.094c0.823,0.886,2.276,1.389,3.729,1.264c0.758-0.063,1.453-0.315,1.896-0.758
		c0.381-0.441,0.507-1.01,0.507-1.516C22.774,4.396,22.774,3.261,22.017,2.25z"/>
</g>
</svg>
